<svg width="229" height="39" viewBox="0 0 229 39" fill="none" xmlns="http://www.w3.org/2000/svg">
<path d="M223.998 29.528C222.795 29.528 221.761 29.1027 220.896 28.252C220.045 27.3867 219.62 26.3527 219.62 25.15C219.62 23.918 220.045 22.8767 220.896 22.026C221.761 21.1607 222.795 20.728 223.998 20.728C225.215 20.728 226.249 21.1607 227.1 22.026C227.965 22.8767 228.398 23.918 228.398 25.15C228.398 26.3527 227.965 27.3867 227.1 28.252C226.249 29.1027 225.215 29.528 223.998 29.528Z" fill="black"/>
<path d="M197.66 29V0.104004H205.052V14.006C205.206 13.628 205.535 13.229 206.039 12.809C206.543 12.375 207.201 12.011 208.013 11.717C208.839 11.409 209.77 11.255 210.806 11.255C212.5 11.255 213.963 11.682 215.195 12.536C216.427 13.376 217.372 14.489 218.03 15.875C218.688 17.261 219.017 18.766 219.017 20.39C219.017 22.014 218.688 23.519 218.03 24.905C217.372 26.291 216.427 27.404 215.195 28.244C213.963 29.084 212.5 29.504 210.806 29.504C209.98 29.504 209.182 29.357 208.412 29.063C207.656 28.783 206.977 28.412 206.375 27.95C205.787 27.474 205.325 26.963 204.989 26.417V29H197.66ZM211.751 20.39C211.751 19.774 211.604 19.214 211.31 18.71C211.03 18.192 210.638 17.786 210.134 17.492C209.63 17.184 209.056 17.03 208.412 17.03C207.768 17.03 207.194 17.184 206.69 17.492C206.186 17.786 205.787 18.192 205.493 18.71C205.199 19.214 205.052 19.774 205.052 20.39C205.052 21.006 205.199 21.573 205.493 22.091C205.787 22.595 206.186 22.994 206.69 23.288C207.194 23.582 207.768 23.729 208.412 23.729C209.056 23.729 209.63 23.582 210.134 23.288C210.638 22.994 211.03 22.595 211.31 22.091C211.604 21.573 211.751 21.006 211.751 20.39Z" fill="black"/>
<path d="M183.736 19.466C183.736 20.67 183.946 21.636 184.366 22.364C184.786 23.078 185.535 23.435 186.613 23.435C187.705 23.435 188.461 23.078 188.881 22.364C189.301 21.636 189.511 20.67 189.511 19.466V11.759H196.819V20.222C196.819 22.126 196.42 23.778 195.622 25.178C194.824 26.564 193.662 27.635 192.136 28.391C190.624 29.133 188.783 29.504 186.613 29.504C184.457 29.504 182.623 29.133 181.111 28.391C179.599 27.635 178.437 26.564 177.625 25.178C176.827 23.778 176.428 22.126 176.428 20.222V11.759H183.736V19.466Z" fill="black"/>
<path d="M167.481 18.29H159.333V29H152.025V1.28003H159.333V11.927H167.481V1.28003H174.747V29H167.481V18.29Z" fill="black"/>
<path d="M143.627 11.255C144.873 11.255 146.084 11.5 147.26 11.99C148.436 12.48 149.402 13.264 150.158 14.342C150.928 15.42 151.313 16.827 151.313 18.563V29H143.858V19.76C143.858 18.71 143.606 17.905 143.102 17.345C142.598 16.771 141.926 16.484 141.086 16.484C140.54 16.484 140.029 16.624 139.553 16.904C139.077 17.184 138.692 17.576 138.398 18.08C138.118 18.584 137.978 19.172 137.978 19.844V29H130.544V11.759H137.978V14.09C138.16 13.628 138.517 13.187 139.049 12.767C139.581 12.333 140.246 11.976 141.044 11.696C141.842 11.402 142.703 11.255 143.627 11.255Z" fill="black"/>
<path d="M122.064 29V11.759H129.477V29H122.064ZM125.865 9.11303C124.731 9.11303 123.765 8.71403 122.967 7.91603C122.183 7.11803 121.791 6.16603 121.791 5.06003C121.791 3.95403 122.183 2.99503 122.967 2.18303C123.765 1.37103 124.731 0.965027 125.865 0.965027C126.607 0.965027 127.286 1.15403 127.902 1.53203C128.518 1.89603 129.015 2.38603 129.393 3.00203C129.771 3.61803 129.96 4.30403 129.96 5.06003C129.96 6.16603 129.554 7.11803 128.742 7.91603C127.944 8.71403 126.985 9.11303 125.865 9.11303Z" fill="black"/>
<path d="M109.563 38.24C108.415 38.24 107.232 38.142 106.014 37.946C104.796 37.764 103.634 37.421 102.528 36.917C101.436 36.413 100.498 35.685 99.7137 34.733L103.977 30.218C104.327 30.61 104.74 30.974 105.216 31.31C105.692 31.66 106.259 31.94 106.917 32.15C107.575 32.374 108.345 32.486 109.227 32.486C110.025 32.486 110.739 32.367 111.369 32.129C111.999 31.891 112.489 31.513 112.839 30.995C113.203 30.491 113.385 29.84 113.385 29.042V28.664H120.693V29.462C120.693 31.394 120.196 33.011 119.202 34.313C118.222 35.615 116.892 36.595 115.212 37.253C113.532 37.911 111.649 38.24 109.563 38.24ZM113.385 29V26.417C113.245 26.683 112.93 27.068 112.44 27.572C111.95 28.062 111.299 28.51 110.487 28.916C109.689 29.308 108.751 29.504 107.673 29.504C105.965 29.504 104.488 29.084 103.242 28.244C101.996 27.404 101.03 26.291 100.344 24.905C99.6717 23.519 99.3357 22.014 99.3357 20.39C99.3357 18.766 99.6717 17.261 100.344 15.875C101.03 14.489 101.996 13.376 103.242 12.536C104.488 11.682 105.965 11.255 107.673 11.255C108.695 11.255 109.584 11.409 110.34 11.717C111.11 12.025 111.74 12.389 112.23 12.809C112.734 13.229 113.091 13.628 113.301 14.006V11.759H120.693V29H113.385ZM106.623 20.39C106.623 21.006 106.77 21.573 107.064 22.091C107.358 22.595 107.757 22.994 108.261 23.288C108.765 23.582 109.339 23.729 109.983 23.729C110.627 23.729 111.194 23.582 111.684 23.288C112.188 22.994 112.58 22.595 112.86 22.091C113.154 21.573 113.301 21.006 113.301 20.39C113.301 19.774 113.154 19.214 112.86 18.71C112.58 18.192 112.188 17.786 111.684 17.492C111.194 17.184 110.627 17.03 109.983 17.03C109.339 17.03 108.765 17.184 108.261 17.492C107.757 17.786 107.358 18.192 107.064 18.71C106.77 19.214 106.623 19.774 106.623 20.39Z" fill="black"/>
<path d="M86.1677 19.466C86.1677 20.67 86.3777 21.636 86.7977 22.364C87.2177 23.078 87.9667 23.435 89.0447 23.435C90.1367 23.435 90.8927 23.078 91.3127 22.364C91.7327 21.636 91.9427 20.67 91.9427 19.466V11.759H99.2507V20.222C99.2507 22.126 98.8517 23.778 98.0537 25.178C97.2557 26.564 96.0937 27.635 94.5677 28.391C93.0557 29.133 91.2147 29.504 89.0447 29.504C86.8887 29.504 85.0547 29.133 83.5427 28.391C82.0307 27.635 80.8687 26.564 80.0567 25.178C79.2587 23.778 78.8597 22.126 78.8597 20.222V11.759H86.1677V19.466Z" fill="black"/>
<path d="M77.9905 29H70.5355V0.104004H77.9905V29Z" fill="black"/>
<path d="M49.2664 1.28003H60.1864C61.9784 1.28003 63.5954 1.60203 65.0374 2.24603C66.4934 2.89003 67.6484 3.85603 68.5024 5.14403C69.3564 6.43203 69.7835 8.02803 69.7835 9.93203C69.7835 11.822 69.3564 13.439 68.5024 14.783C67.6484 16.127 66.4934 17.156 65.0374 17.87C63.5954 18.584 61.9784 18.941 60.1864 18.941H56.5744V29H49.2664V1.28003ZM56.5744 13.229H58.1494C58.8774 13.229 59.5214 13.124 60.0814 12.914C60.6554 12.704 61.1104 12.375 61.4464 11.927C61.7824 11.465 61.9505 10.856 61.9505 10.1C61.9505 9.35803 61.7824 8.76303 61.4464 8.31503C61.1104 7.85303 60.6554 7.51703 60.0814 7.30703C59.5214 7.09703 58.8774 6.99203 58.1494 6.99203H56.5744V13.229Z" fill="black"/>
<path d="M36.9962 38.24C35.8482 38.24 34.6652 38.142 33.4472 37.946C32.2292 37.764 31.0672 37.421 29.9612 36.917C28.8692 36.413 27.9312 35.685 27.1472 34.733L31.4102 30.218C31.7602 30.61 32.1732 30.974 32.6492 31.31C33.1252 31.66 33.6922 31.94 34.3502 32.15C35.0082 32.374 35.7782 32.486 36.6602 32.486C37.4582 32.486 38.1722 32.367 38.8022 32.129C39.4322 31.891 39.9222 31.513 40.2722 30.995C40.6362 30.491 40.8182 29.84 40.8182 29.042V28.664H48.1262V29.462C48.1262 31.394 47.6292 33.011 46.6352 34.313C45.6552 35.615 44.3252 36.595 42.6452 37.253C40.9652 37.911 39.0822 38.24 36.9962 38.24ZM40.8182 29V26.417C40.6782 26.683 40.3632 27.068 39.8732 27.572C39.3832 28.062 38.7322 28.51 37.9202 28.916C37.1222 29.308 36.1842 29.504 35.1062 29.504C33.3982 29.504 31.9212 29.084 30.6752 28.244C29.4292 27.404 28.4632 26.291 27.7772 24.905C27.1052 23.519 26.7692 22.014 26.7692 20.39C26.7692 18.766 27.1052 17.261 27.7772 15.875C28.4632 14.489 29.4292 13.376 30.6752 12.536C31.9212 11.682 33.3982 11.255 35.1062 11.255C36.1282 11.255 37.0172 11.409 37.7732 11.717C38.5432 12.025 39.1732 12.389 39.6632 12.809C40.1672 13.229 40.5242 13.628 40.7342 14.006V11.759H48.1262V29H40.8182ZM34.0562 20.39C34.0562 21.006 34.2032 21.573 34.4972 22.091C34.7912 22.595 35.1902 22.994 35.6942 23.288C36.1982 23.582 36.7722 23.729 37.4162 23.729C38.0602 23.729 38.6272 23.582 39.1172 23.288C39.6212 22.994 40.0132 22.595 40.2932 22.091C40.5872 21.573 40.7342 21.006 40.7342 20.39C40.7342 19.774 40.5872 19.214 40.2932 18.71C40.0132 18.192 39.6212 17.786 39.1172 17.492C38.6272 17.184 38.0602 17.03 37.4162 17.03C36.7722 17.03 36.1982 17.184 35.6942 17.492C35.1902 17.786 34.7912 18.192 34.4972 18.71C34.2032 19.214 34.0562 19.774 34.0562 20.39Z" fill="black"/>
<path d="M18.7718 29V11.759H26.1848V29H18.7718ZM22.5728 9.11303C21.4388 9.11303 20.4728 8.71403 19.6748 7.91603C18.8908 7.11803 18.4988 6.16603 18.4988 5.06003C18.4988 3.95403 18.8908 2.99503 19.6748 2.18303C20.4728 1.37103 21.4388 0.965027 22.5728 0.965027C23.3148 0.965027 23.9938 1.15403 24.6098 1.53203C25.2258 1.89603 25.7228 2.38603 26.1008 3.00203C26.4788 3.61803 26.6678 4.30403 26.6678 5.06003C26.6678 6.16603 26.2618 7.11803 25.4498 7.91603C24.6518 8.71403 23.6928 9.11303 22.5728 9.11303Z" fill="black"/>
<path d="M0.764008 1.28003H17.396V7.64303H8.07201V11.927H16.661V18.29H8.07201V29H0.764008V1.28003Z" fill="black"/>
</svg>
