<svg width="362" height="42" viewBox="0 0 362 42" fill="none" xmlns="http://www.w3.org/2000/svg">
<path d="M348.654 33V10.572H353.652V16.746L353.064 14.94C353.736 13.428 354.786 12.28 356.214 11.496C357.67 10.712 359.476 10.32 361.632 10.32V15.318C361.408 15.262 361.198 15.234 361.002 15.234C360.806 15.206 360.61 15.192 360.414 15.192C358.426 15.192 356.844 15.78 355.668 16.956C354.492 18.104 353.904 19.826 353.904 22.122V33H348.654Z" fill="black"/>
<path d="M334.749 33.294C332.257 33.294 330.073 32.804 328.197 31.824C326.349 30.816 324.907 29.444 323.871 27.708C322.863 25.972 322.359 23.998 322.359 21.786C322.359 19.546 322.849 17.572 323.829 15.864C324.837 14.128 326.209 12.77 327.945 11.79C329.709 10.81 331.711 10.32 333.951 10.32C336.135 10.32 338.081 10.796 339.789 11.748C341.497 12.7 342.841 14.044 343.821 15.78C344.801 17.516 345.291 19.56 345.291 21.912C345.291 22.136 345.277 22.388 345.249 22.668C345.249 22.948 345.235 23.214 345.207 23.466H326.517V19.98H342.435L340.377 21.072C340.405 19.784 340.139 18.65 339.579 17.67C339.019 16.69 338.249 15.92 337.269 15.36C336.317 14.8 335.211 14.52 333.951 14.52C332.663 14.52 331.529 14.8 330.549 15.36C329.597 15.92 328.841 16.704 328.281 17.712C327.749 18.692 327.483 19.854 327.483 21.198V22.038C327.483 23.382 327.791 24.572 328.407 25.608C329.023 26.644 329.891 27.442 331.011 28.002C332.131 28.562 333.419 28.842 334.875 28.842C336.135 28.842 337.269 28.646 338.277 28.254C339.285 27.862 340.181 27.246 340.965 26.406L343.779 29.64C342.771 30.816 341.497 31.726 339.957 32.37C338.445 32.986 336.709 33.294 334.749 33.294Z" fill="black"/>
<path d="M306.545 33.294C304.389 33.294 302.443 32.818 300.707 31.866C298.999 30.886 297.655 29.542 296.675 27.834C295.695 26.126 295.205 24.11 295.205 21.786C295.205 19.462 295.695 17.446 296.675 15.738C297.655 14.03 298.999 12.7 300.707 11.748C302.443 10.796 304.389 10.32 306.545 10.32C308.421 10.32 310.101 10.74 311.585 11.58C313.069 12.392 314.245 13.638 315.113 15.318C315.981 16.998 316.415 19.154 316.415 21.786C316.415 24.39 315.995 26.546 315.155 28.254C314.315 29.934 313.153 31.194 311.669 32.034C310.185 32.874 308.477 33.294 306.545 33.294ZM307.175 28.8C308.435 28.8 309.555 28.52 310.535 27.96C311.543 27.4 312.341 26.588 312.929 25.524C313.545 24.46 313.853 23.214 313.853 21.786C313.853 20.33 313.545 19.084 312.929 18.048C312.341 16.984 311.543 16.172 310.535 15.612C309.555 15.052 308.435 14.772 307.175 14.772C305.915 14.772 304.781 15.052 303.773 15.612C302.793 16.172 301.995 16.984 301.379 18.048C300.791 19.084 300.497 20.33 300.497 21.786C300.497 23.214 300.791 24.46 301.379 25.524C301.995 26.588 302.793 27.4 303.773 27.96C304.781 28.52 305.915 28.8 307.175 28.8ZM313.979 33V27.708L314.189 21.744L313.769 15.78V1.836H318.977V33H313.979Z" fill="black"/>
<path d="M282.666 10.32C284.458 10.32 286.054 10.67 287.454 11.37C288.882 12.07 290.002 13.148 290.814 14.604C291.626 16.032 292.032 17.88 292.032 20.148V33H286.782V20.82C286.782 18.832 286.306 17.348 285.354 16.368C284.43 15.388 283.128 14.898 281.448 14.898C280.216 14.898 279.124 15.15 278.172 15.654C277.22 16.158 276.478 16.914 275.946 17.922C275.442 18.902 275.19 20.148 275.19 21.66V33H269.94V10.572H274.938V16.62L274.056 14.772C274.84 13.344 275.974 12.252 277.458 11.496C278.97 10.712 280.706 10.32 282.666 10.32Z" fill="black"/>
<path d="M259.479 33V10.572H264.729V33H259.479ZM262.125 6.87599C261.145 6.87599 260.333 6.56799 259.689 5.95199C259.073 5.33599 258.765 4.59399 258.765 3.72599C258.765 2.82999 259.073 2.08799 259.689 1.49999C260.333 0.883988 261.145 0.575989 262.125 0.575989C263.105 0.575989 263.903 0.869989 264.519 1.45799C265.163 2.01799 265.485 2.73199 265.485 3.59999C265.485 4.52399 265.177 5.30799 264.561 5.95199C263.945 6.56799 263.133 6.87599 262.125 6.87599Z" fill="black"/>
<path d="M239.919 17.124H254.577V21.744H239.919V17.124ZM240.381 33H234.921V3.59998H256.383V8.17798H240.381V33Z" fill="black"/>
<path d="M211.484 33.294C209.608 33.294 207.802 33.056 206.066 32.58C204.358 32.076 203 31.474 201.992 30.774L204.008 26.784C205.016 27.428 206.22 27.96 207.62 28.38C209.02 28.8 210.42 29.01 211.82 29.01C213.472 29.01 214.662 28.786 215.39 28.338C216.146 27.89 216.524 27.288 216.524 26.532C216.524 25.916 216.272 25.454 215.768 25.146C215.264 24.81 214.606 24.558 213.794 24.39C212.982 24.222 212.072 24.068 211.064 23.928C210.084 23.788 209.09 23.606 208.082 23.382C207.102 23.13 206.206 22.78 205.394 22.332C204.582 21.856 203.924 21.226 203.42 20.442C202.916 19.658 202.664 18.622 202.664 17.334C202.664 15.906 203.07 14.674 203.882 13.638C204.694 12.574 205.828 11.762 207.284 11.202C208.768 10.614 210.518 10.32 212.534 10.32C214.046 10.32 215.572 10.488 217.112 10.824C218.652 11.16 219.926 11.636 220.934 12.252L218.918 16.242C217.854 15.598 216.776 15.164 215.684 14.94C214.62 14.688 213.556 14.562 212.492 14.562C210.896 14.562 209.706 14.8 208.922 15.276C208.166 15.752 207.788 16.354 207.788 17.082C207.788 17.754 208.04 18.258 208.544 18.594C209.048 18.93 209.706 19.196 210.518 19.392C211.33 19.588 212.226 19.756 213.206 19.896C214.214 20.008 215.208 20.19 216.188 20.442C217.168 20.694 218.064 21.044 218.876 21.492C219.716 21.912 220.388 22.514 220.892 23.298C221.396 24.082 221.648 25.104 221.648 26.364C221.648 27.764 221.228 28.982 220.388 30.018C219.576 31.054 218.414 31.866 216.902 32.454C215.39 33.014 213.584 33.294 211.484 33.294Z" fill="black"/>
<path d="M190.208 10.32C192 10.32 193.596 10.67 194.996 11.37C196.424 12.07 197.544 13.148 198.356 14.604C199.168 16.032 199.574 17.88 199.574 20.148V33H194.324V20.82C194.324 18.832 193.848 17.348 192.896 16.368C191.972 15.388 190.67 14.898 188.99 14.898C187.758 14.898 186.666 15.15 185.714 15.654C184.762 16.158 184.02 16.914 183.488 17.922C182.984 18.902 182.732 20.148 182.732 21.66V33H177.482V10.572H182.48V16.62L181.598 14.772C182.382 13.344 183.516 12.252 185 11.496C186.512 10.712 188.248 10.32 190.208 10.32Z" fill="black"/>
<path d="M167.022 33V10.572H172.272V33H167.022ZM169.668 6.87599C168.688 6.87599 167.876 6.56799 167.232 5.95199C166.616 5.33599 166.308 4.59399 166.308 3.72599C166.308 2.82999 166.616 2.08799 167.232 1.49999C167.876 0.883988 168.688 0.575989 169.668 0.575989C170.648 0.575989 171.446 0.869989 172.062 1.45799C172.706 2.01799 173.028 2.73199 173.028 3.59999C173.028 4.52399 172.72 5.30799 172.104 5.95199C171.488 6.56799 170.676 6.87599 169.668 6.87599Z" fill="black"/>
<path d="M149.703 41.442C147.631 41.442 145.601 41.162 143.613 40.602C141.653 40.07 140.043 39.286 138.783 38.25L141.135 34.302C142.115 35.114 143.347 35.758 144.831 36.234C146.343 36.738 147.869 36.99 149.409 36.99C151.873 36.99 153.679 36.416 154.827 35.268C155.975 34.148 156.549 32.454 156.549 30.186V26.196L156.969 21.114L156.801 16.032V10.572H161.799V29.598C161.799 33.658 160.763 36.64 158.691 38.544C156.619 40.476 153.623 41.442 149.703 41.442ZM149.031 31.992C146.903 31.992 144.971 31.544 143.235 30.648C141.527 29.724 140.169 28.45 139.161 26.826C138.181 25.202 137.691 23.298 137.691 21.114C137.691 18.958 138.181 17.068 139.161 15.444C140.169 13.82 141.527 12.56 143.235 11.664C144.971 10.768 146.903 10.32 149.031 10.32C150.935 10.32 152.643 10.698 154.155 11.454C155.667 12.21 156.871 13.386 157.767 14.982C158.691 16.578 159.153 18.622 159.153 21.114C159.153 23.606 158.691 25.664 157.767 27.288C156.871 28.884 155.667 30.074 154.155 30.858C152.643 31.614 150.935 31.992 149.031 31.992ZM149.829 27.54C151.145 27.54 152.321 27.274 153.357 26.742C154.393 26.182 155.191 25.426 155.751 24.474C156.339 23.494 156.633 22.374 156.633 21.114C156.633 19.854 156.339 18.748 155.751 17.796C155.191 16.816 154.393 16.074 153.357 15.57C152.321 15.038 151.145 14.772 149.829 14.772C148.513 14.772 147.323 15.038 146.259 15.57C145.223 16.074 144.411 16.816 143.823 17.796C143.263 18.748 142.983 19.854 142.983 21.114C142.983 22.374 143.263 23.494 143.823 24.474C144.411 25.426 145.223 26.182 146.259 26.742C147.323 27.274 148.513 27.54 149.829 27.54Z" fill="black"/>
<path d="M122.124 33.294C120.22 33.294 118.54 32.944 117.084 32.244C115.628 31.516 114.494 30.424 113.682 28.968C112.87 27.484 112.464 25.622 112.464 23.382V10.572H117.714V22.668C117.714 24.684 118.162 26.196 119.058 27.204C119.982 28.184 121.284 28.674 122.964 28.674C124.196 28.674 125.26 28.422 126.156 27.918C127.08 27.414 127.794 26.658 128.298 25.65C128.83 24.642 129.096 23.396 129.096 21.912V10.572H134.346V33H129.348V26.952L130.23 28.8C129.474 30.256 128.368 31.376 126.912 32.16C125.456 32.916 123.86 33.294 122.124 33.294Z" fill="black"/>
<path d="M102.171 33V1.836H107.421V33H102.171Z" fill="black"/>
<path d="M73.8803 33V3.59998H85.9763C88.5803 3.59998 90.8063 4.01998 92.6543 4.85998C94.5303 5.69998 95.9723 6.90398 96.9803 8.47198C97.9883 10.04 98.4923 11.902 98.4923 14.058C98.4923 16.214 97.9883 18.076 96.9803 19.644C95.9723 21.212 94.5303 22.416 92.6543 23.256C90.8063 24.096 88.5803 24.516 85.9763 24.516H76.9043L79.3403 21.954V33H73.8803ZM79.3403 22.542L76.9043 19.896H85.7243C88.1323 19.896 89.9383 19.392 91.1423 18.384C92.3743 17.348 92.9903 15.906 92.9903 14.058C92.9903 12.182 92.3743 10.74 91.1423 9.73198C89.9383 8.72398 88.1323 8.21998 85.7243 8.21998H76.9043L79.3403 5.53197V22.542Z" fill="black"/>
<path d="M46.1308 41.442C44.0588 41.442 42.0288 41.162 40.0408 40.602C38.0808 40.07 36.4708 39.286 35.2108 38.25L37.5628 34.302C38.5428 35.114 39.7748 35.758 41.2588 36.234C42.7708 36.738 44.2968 36.99 45.8368 36.99C48.3008 36.99 50.1068 36.416 51.2548 35.268C52.4028 34.148 52.9768 32.454 52.9768 30.186V26.196L53.3968 21.114L53.2288 16.032V10.572H58.2268V29.598C58.2268 33.658 57.1908 36.64 55.1188 38.544C53.0468 40.476 50.0508 41.442 46.1308 41.442ZM45.4588 31.992C43.3308 31.992 41.3988 31.544 39.6628 30.648C37.9548 29.724 36.5968 28.45 35.5888 26.826C34.6088 25.202 34.1188 23.298 34.1188 21.114C34.1188 18.958 34.6088 17.068 35.5888 15.444C36.5968 13.82 37.9548 12.56 39.6628 11.664C41.3988 10.768 43.3308 10.32 45.4588 10.32C47.3628 10.32 49.0708 10.698 50.5828 11.454C52.0948 12.21 53.2988 13.386 54.1948 14.982C55.1188 16.578 55.5808 18.622 55.5808 21.114C55.5808 23.606 55.1188 25.664 54.1948 27.288C53.2988 28.884 52.0948 30.074 50.5828 30.858C49.0708 31.614 47.3628 31.992 45.4588 31.992ZM46.2568 27.54C47.5728 27.54 48.7488 27.274 49.7848 26.742C50.8208 26.182 51.6188 25.426 52.1788 24.474C52.7668 23.494 53.0608 22.374 53.0608 21.114C53.0608 19.854 52.7668 18.748 52.1788 17.796C51.6188 16.816 50.8208 16.074 49.7848 15.57C48.7488 15.038 47.5728 14.772 46.2568 14.772C44.9408 14.772 43.7508 15.038 42.6868 15.57C41.6508 16.074 40.8388 16.816 40.2508 17.796C39.6908 18.748 39.4108 19.854 39.4108 21.114C39.4108 22.374 39.6908 23.494 40.2508 24.474C40.8388 25.426 41.6508 26.182 42.6868 26.742C43.7508 27.274 44.9408 27.54 46.2568 27.54Z" fill="black"/>
<path d="M25.5062 33V10.572H30.7562V33H25.5062ZM28.1522 6.87599C27.1722 6.87599 26.3602 6.56799 25.7162 5.95199C25.1002 5.33599 24.7922 4.59399 24.7922 3.72599C24.7922 2.82999 25.1002 2.08799 25.7162 1.49999C26.3602 0.883988 27.1722 0.575989 28.1522 0.575989C29.1322 0.575989 29.9302 0.869989 30.5462 1.45799C31.1902 2.01799 31.5122 2.73199 31.5122 3.59999C31.5122 4.52399 31.2042 5.30799 30.5882 5.95199C29.9722 6.56799 29.1602 6.87599 28.1522 6.87599Z" fill="black"/>
<path d="M5.946 17.124H20.604V21.744H5.946V17.124ZM6.408 33H0.947998V3.59998H22.41V8.17798H6.408V33Z" fill="black"/>
</svg>
